<?xml version="1.0" standalone="no"?>
<!DOCTYPE svg PUBLIC "-//W3C//DTD SVG 20010904//EN"
 "http://www.w3.org/TR/2001/REC-SVG-20010904/DTD/svg10.dtd">
<svg version="1.0" xmlns="http://www.w3.org/2000/svg"
 width="2000.000000pt" height="1814.000000pt" viewBox="0 0 2000.000000 1814.000000"
 preserveAspectRatio="xMidYMid meet">
<metadata>
Created by potrace 1.15, written by Peter Selinger 2001-2017
</metadata>
<g transform="translate(0.000000,1814.000000) scale(0.100000,-0.100000)"
fill="#000000" stroke="none">
<path d="M14425 17899 c-1789 -99 -3313 -1075 -4082 -2614 -45 -88 -149 -311
-233 -495 -84 -184 -153 -336 -155 -338 -1 -1 -32 115 -69 258 -81 316 -118
425 -201 595 -342 703 -1101 1509 -1845 1957 -105 63 -400 223 -558 302 -422
212 -745 293 -1297 327 -269 16 -1156 6 -1370 -15 -210 -21 -401 -50 -544 -82
-142 -31 -427 -125 -576 -189 -148 -63 -582 -277 -729 -360 -713 -401 -1310
-957 -1799 -1675 -291 -429 -603 -1057 -721 -1456 -108 -362 -148 -686 -167
-1348 -40 -1350 131 -2412 551 -3431 403 -980 1111 -1957 2066 -2856 1008
-949 1528 -1372 3774 -3069 752 -568 1036 -795 1560 -1244 516 -442 1085 -987
1296 -1241 202 -243 355 -460 479 -680 128 -226 142 -232 213 -90 60 119 176
257 497 585 787 807 1971 1872 2975 2676 364 292 690 541 1085 829 954 696
1711 1300 2380 1899 260 233 870 844 1060 1061 698 800 1144 1517 1488 2390
106 270 166 460 226 720 298 1288 255 3046 -103 4180 -78 248 -139 398 -248
605 -348 664 -841 1254 -1433 1715 -229 179 -567 391 -846 530 -816 409 -1760
605 -2674 554z"/>
</g>
</svg>
