<svg id="svg" version="1.1" width="400" height="362.79999999999995" xmlns="http://www.w3.org/2000/svg" xmlns:xlink="http://www.w3.org/1999/xlink" style="display: block;"><g id="svgg"><path id="path0" d="M288.500 4.814 C 252.725 6.794,222.248 26.311,206.850 57.100 C 205.970 58.860,203.878 63.315,202.201 67.000 C 200.524 70.685,199.131 73.724,199.107 73.752 C 199.082 73.781,198.459 71.461,197.722 68.595 C 195.252 58.997,193.012 54.112,187.596 46.519 C 178.089 33.189,166.057 22.513,151.800 14.756 C 135.569 5.925,129.481 4.618,105.697 4.858 C 88.117 5.036,80.065 6.348,69.900 10.693 C 42.448 22.425,24.106 39.594,11.027 65.800 C 3.882 80.115,2.156 87.729,1.576 107.486 C 0.037 159.924,15.503 197.075,53.920 233.221 C 74.084 252.193,84.489 260.654,129.400 294.599 C 167.480 323.381,187.095 341.995,196.103 357.900 C 198.665 362.423,198.935 362.538,200.356 359.700 C 201.873 356.670,207.447 350.559,218.508 339.800 C 241.417 317.515,267.407 295.476,291.500 277.904 C 349.423 235.659,375.857 206.959,390.053 170.900 C 402.409 139.515,401.217 86.843,387.561 60.800 C 368.431 24.314,329.877 2.525,288.500 4.814 " stroke="none" fill="#ff0000" fill-rule="evenodd"></path><path id="path1" d="M288.500 4.814 C 252.725 6.794,222.248 26.311,206.850 57.100 C 205.970 58.860,203.878 63.315,202.201 67.000 C 200.524 70.685,199.131 73.724,199.107 73.752 C 199.082 73.781,198.459 71.461,197.722 68.595 C 195.252 58.997,193.012 54.112,187.596 46.519 C 178.089 33.189,166.057 22.513,151.800 14.756 C 135.569 5.925,129.481 4.618,105.697 4.858 C 88.117 5.036,80.065 6.348,69.900 10.693 C 42.448 22.425,24.106 39.594,11.027 65.800 C 3.882 80.115,2.156 87.729,1.576 107.486 C 0.037 159.924,15.503 197.075,53.920 233.221 C 74.084 252.193,84.489 260.654,129.400 294.599 C 167.480 323.381,187.095 341.995,196.103 357.900 C 198.665 362.423,198.935 362.538,200.356 359.700 C 201.873 356.670,207.447 350.559,218.508 339.800 C 241.417 317.515,267.407 295.476,291.500 277.904 C 349.423 235.659,375.857 206.959,390.053 170.900 C 402.409 139.515,401.217 86.843,387.561 60.800 C 368.431 24.314,329.877 2.525,288.500 4.814 " stroke="none" fill="#ff0000" fill-rule="evenodd"></path><path id="path2" d="M288.500 4.814 C 252.725 6.794,222.248 26.311,206.850 57.100 C 205.970 58.860,203.878 63.315,202.201 67.000 C 200.524 70.685,199.131 73.724,199.107 73.752 C 199.082 73.781,198.459 71.461,197.722 68.595 C 195.252 58.997,193.012 54.112,187.596 46.519 C 178.089 33.189,166.057 22.513,151.800 14.756 C 135.569 5.925,129.481 4.618,105.697 4.858 C 88.117 5.036,80.065 6.348,69.900 10.693 C 42.448 22.425,24.106 39.594,11.027 65.800 C 3.882 80.115,2.156 87.729,1.576 107.486 C 0.037 159.924,15.503 197.075,53.920 233.221 C 74.084 252.193,84.489 260.654,129.400 294.599 C 167.480 323.381,187.095 341.995,196.103 357.900 C 198.665 362.423,198.935 362.538,200.356 359.700 C 201.873 356.670,207.447 350.559,218.508 339.800 C 241.417 317.515,267.407 295.476,291.500 277.904 C 349.423 235.659,375.857 206.959,390.053 170.900 C 402.409 139.515,401.217 86.843,387.561 60.800 C 368.431 24.314,329.877 2.525,288.500 4.814 " stroke="none" fill="#ff0000" fill-rule="evenodd"></path><path id="path3" d="M288.500 4.814 C 252.725 6.794,222.248 26.311,206.850 57.100 C 205.970 58.860,203.878 63.315,202.201 67.000 C 200.524 70.685,199.131 73.724,199.107 73.752 C 199.082 73.781,198.459 71.461,197.722 68.595 C 195.252 58.997,193.012 54.112,187.596 46.519 C 178.089 33.189,166.057 22.513,151.800 14.756 C 135.569 5.925,129.481 4.618,105.697 4.858 C 88.117 5.036,80.065 6.348,69.900 10.693 C 42.448 22.425,24.106 39.594,11.027 65.800 C 3.882 80.115,2.156 87.729,1.576 107.486 C 0.037 159.924,15.503 197.075,53.920 233.221 C 74.084 252.193,84.489 260.654,129.400 294.599 C 167.480 323.381,187.095 341.995,196.103 357.900 C 198.665 362.423,198.935 362.538,200.356 359.700 C 201.873 356.670,207.447 350.559,218.508 339.800 C 241.417 317.515,267.407 295.476,291.500 277.904 C 349.423 235.659,375.857 206.959,390.053 170.900 C 402.409 139.515,401.217 86.843,387.561 60.800 C 368.431 24.314,329.877 2.525,288.500 4.814 " stroke="none" fill="#ff0000" fill-rule="evenodd"></path><path id="path4" d="M288.500 4.814 C 252.725 6.794,222.248 26.311,206.850 57.100 C 205.970 58.860,203.878 63.315,202.201 67.000 C 200.524 70.685,199.131 73.724,199.107 73.752 C 199.082 73.781,198.459 71.461,197.722 68.595 C 195.252 58.997,193.012 54.112,187.596 46.519 C 178.089 33.189,166.057 22.513,151.800 14.756 C 135.569 5.925,129.481 4.618,105.697 4.858 C 88.117 5.036,80.065 6.348,69.900 10.693 C 42.448 22.425,24.106 39.594,11.027 65.800 C 3.882 80.115,2.156 87.729,1.576 107.486 C 0.037 159.924,15.503 197.075,53.920 233.221 C 74.084 252.193,84.489 260.654,129.400 294.599 C 167.480 323.381,187.095 341.995,196.103 357.900 C 198.665 362.423,198.935 362.538,200.356 359.700 C 201.873 356.670,207.447 350.559,218.508 339.800 C 241.417 317.515,267.407 295.476,291.500 277.904 C 349.423 235.659,375.857 206.959,390.053 170.900 C 402.409 139.515,401.217 86.843,387.561 60.800 C 368.431 24.314,329.877 2.525,288.500 4.814 " stroke="none" fill="#ff0000" fill-rule="evenodd"></path></g></svg>